PathFileType	4	(X/Y/Z)	SUBJ36_0_static_RCNL2025.trc
DataRate	CameraRate	NumFrames	NumMarkers	Units	OrigDataRate	OrigDataStartFrame	OrigNumFrames
100	100	12	25	mm	100	36	143
Frame#	Time	R_Shoulder			L_Shoulder			C7			J_Notch			R_Elbow			L_Elbow			R_Wrist			L_Wrist			R_Asis			L_Asis			Sacral			Thoracic			Sternum			R_Thigh_Lateral			R_Knee_Lateral			R_Shank_Lateral			R_Ankle_Lateral			R_Heel			R_Toe			L_Thigh_Lateral			L_Knee_Lateral			L_Shank_Lateral			L_Ankle_Lateral			L_Heel			L_Toe		
		X1	Y1	Z1	X2	Y2	Z2	X3	Y3	Z3	X4	Y4	Z4	X5	Y5	Z5	X6	Y6	Z6	X7	Y7	Z7	X8	Y8	Z8	X9	Y9	Z9	X10	Y10	Z10	X11	Y11	Z11	X12	Y12	Z12	X13	Y13	Z13	X14	Y14	Z14	X15	Y15	Z15	X16	Y16	Z16	X17	Y17	Z17	X18	Y18	Z18	X19	Y19	Z19	X20	Y20	Z20	X21	Y21	Z21	X22	Y22	Z22	X23	Y23	Z23	X24	Y24	Z24	X25	Y25	Z25
36	0.35000000	-315.020203	1362.384399	-73.434212	-333.520996	1345.345093	-417.335266	-393.909332	1415.978882	-228.463867	-253.032578	1318.024292	-239.388397	-334.523865	1055.362305	44.150394	-346.065002	1040.507568	-504.649445	-257.401901	830.417084	56.587875	-231.393631	836.541382	-509.477280	-226.542633	925.430298	-115.036102	-215.350601	921.266113	-344.499329	-440.336121	907.846619	-234.424530	-450.741150	1148.854370	-233.851135	-207.233932	1141.012207	-235.721130	-350.940613	513.112183	-63.826618	-356.434418	452.159698	-112.759567	-397.782562	244.405167	-71.295471	-351.414398	99.751465	-119.597496	-456.083893	49.185871	-185.402298	-288.996521	49.753258	-166.458847	-331.398560	528.025757	-426.455322	-346.412659	454.314514	-353.617493	-385.102875	242.515106	-389.333344	-399.988770	75.901581	-311.776123	-442.367279	46.427727	-261.464478	-271.877045	48.441807	-280.946228
37	0.36000000	-315.032318	1362.484863	-73.412140	-333.597473	1345.311890	-417.313232	-394.149506	1416.075684	-228.472046	-252.991257	1318.098999	-239.426849	-334.483643	1055.378662	44.217819	-346.133759	1040.500122	-504.611938	-257.390320	830.495483	56.629258	-231.378189	836.497040	-509.332535	-226.652588	925.452454	-114.995720	-215.440750	921.330994	-344.556824	-440.346313	907.842957	-234.421265	-450.817902	1148.866821	-233.799988	-207.347992	1141.080322	-235.745773	-350.909546	513.157043	-63.861343	-356.457275	452.188934	-112.745659	-397.775513	244.454575	-71.298050	-351.412384	99.750305	-119.598991	-456.081268	49.182865	-185.404221	-289.017822	49.776859	-166.453018	-331.404419	528.051331	-426.437714	-346.422943	454.344421	-353.591492	-385.183533	242.539856	-389.326599	-399.986328	75.787399	-311.883484	-442.290527	46.317123	-261.539215	-271.905670	48.425205	-280.909241
38	0.37000000	-315.173279	1362.551147	-73.327354	-333.745636	1345.357422	-417.279907	-394.266205	1416.073242	-228.383331	-253.059448	1318.101196	-239.341644	-334.486298	1055.519653	44.233665	-346.229401	1040.457642	-504.514709	-257.407883	830.530914	56.700462	-231.457512	836.524719	-509.174606	-226.679108	925.446777	-114.975998	-215.467850	921.469421	-344.491272	-440.412872	907.851318	-234.383072	-450.834198	1148.792114	-233.775284	-207.273560	1141.181763	-235.657532	-350.924408	513.132996	-63.830311	-356.464508	452.190521	-112.729530	-397.818329	244.472885	-71.263405	-351.321014	99.672592	-119.693489	-456.079865	49.181618	-185.404968	-288.979187	49.761356	-166.487656	-331.427429	528.044250	-426.339874	-346.495087	454.338043	-353.569824	-385.183868	242.546051	-389.292480	-399.999298	75.922920	-311.750732	-442.398254	46.422367	-261.451416	-271.903809	48.476528	-280.866852
39	0.38000000	-315.215698	1362.531006	-73.413353	-333.845612	1345.345093	-417.239685	-394.307800	1415.968140	-228.399109	-253.155090	1318.162964	-239.360397	-334.514160	1055.436768	44.258770	-346.215210	1040.461426	-504.442322	-257.352676	830.596710	56.792909	-231.435219	836.511993	-509.010498	-226.653015	925.493103	-114.935532	-215.617828	921.435669	-344.443634	-440.401672	907.737488	-234.388046	-450.902191	1148.797852	-233.732010	-207.343811	1141.216309	-235.726944	-350.843292	513.122681	-63.779877	-356.487244	452.156708	-112.717216	-397.775238	244.391632	-71.318329	-351.268677	99.670769	-119.747269	-456.039124	49.101463	-185.451172	-288.988922	49.785694	-166.459610	-331.447876	527.984253	-426.296692	-346.471069	454.377502	-353.616760	-385.117310	242.545822	-389.309875	-399.967773	75.813393	-311.922882	-442.302216	46.308701	-261.449493	-271.818390	48.468987	-280.969177
40	0.39000000	-315.382935	1362.516235	-73.307457	-333.908966	1345.332031	-417.241791	-394.370758	1415.955322	-228.365158	-253.248505	1318.193848	-239.252625	-334.550507	1055.466431	44.386299	-346.284454	1040.418823	-504.355042	-257.364777	830.654449	56.835986	-231.507866	836.479279	-508.882828	-226.681000	925.483032	-114.929840	-215.658707	921.415100	-344.431030	-440.394684	907.729675	-234.391693	-451.073578	1148.766235	-233.704941	-207.345840	1141.239380	-235.777710	-350.882141	513.098877	-63.749481	-356.400299	452.101105	-112.759819	-397.720123	244.462509	-71.480484	-351.270660	99.675964	-119.745720	-456.032043	49.106770	-185.452591	-288.954010	49.743328	-166.448898	-331.440674	527.985962	-426.303772	-346.473389	454.344818	-353.532257	-385.154572	242.541443	-389.281799	-399.970764	75.929398	-311.769775	-442.364929	46.414261	-261.386169	-271.824524	48.446945	-280.953156
41	0.40000000	-315.560944	1362.563599	-73.287643	-333.980988	1345.330200	-417.144501	-394.545624	1415.923096	-228.344421	-253.377182	1318.190796	-239.274353	-334.563263	1055.474731	44.398067	-346.386841	1040.381836	-504.244659	-257.371887	830.638519	56.895626	-231.585670	836.432281	-508.826920	-226.704239	925.490295	-114.913315	-215.596558	921.484497	-344.519867	-440.482056	907.667664	-234.324600	-451.085419	1148.767334	-233.701569	-207.489197	1141.363892	-235.702164	-350.915405	513.026794	-63.748768	-356.454865	452.114044	-112.722664	-397.734558	244.368958	-71.318970	-351.385834	99.732239	-119.619926	-456.036285	49.112263	-185.449692	-288.998444	49.753555	-166.455246	-331.465088	527.988586	-426.278229	-346.485748	454.360535	-353.506866	-385.175751	242.543915	-389.256775	-400.033508	75.896767	-311.743195	-442.429535	46.394115	-261.335571	-271.827698	48.420223	-280.909790
42	0.41000000	-315.673218	1362.588135	-73.201218	-334.159698	1345.371826	-417.154816	-394.682678	1415.859009	-228.230515	-253.440292	1318.218994	-239.214966	-334.590210	1055.470337	44.431133	-346.459351	1040.372314	-504.178833	-257.372208	830.674988	56.932746	-231.596962	836.416595	-508.734375	-226.847839	925.538574	-114.836472	-215.626877	921.526062	-344.454346	-440.491028	907.679077	-234.315460	-451.164001	1148.712891	-233.634827	-207.501358	1141.413452	-235.654770	-350.875031	513.053345	-63.756699	-356.347290	452.133118	-112.671440	-397.708466	244.423538	-71.231369	-351.432983	99.764206	-119.582436	-456.037445	49.112972	-185.449158	-288.977753	49.768208	-166.411911	-331.536255	528.032471	-426.203247	-346.497009	454.349915	-353.459259	-385.188751	242.553894	-389.257202	-399.992218	75.931458	-311.718781	-442.385681	46.425186	-261.359222	-271.836487	48.450512	-280.933838
43	0.42000000	-315.670959	1362.592773	-73.199966	-334.279755	1345.309082	-417.147186	-394.795959	1415.887695	-228.257141	-253.462112	1318.205200	-239.191254	-334.605774	1055.491333	44.430191	-346.534302	1040.348022	-504.114441	-257.380539	830.719574	56.956778	-231.679077	836.395569	-508.598724	-226.854065	925.516907	-114.854004	-215.767166	921.513123	-344.462189	-440.640442	907.703796	-234.323883	-451.321228	1148.729736	-233.632187	-207.556366	1141.423096	-235.605591	-350.776276	513.125061	-63.696442	-356.351929	452.100616	-112.667320	-397.745331	244.409561	-71.322647	-351.428101	99.761566	-119.587418	-456.037201	49.112705	-185.449280	-289.003296	49.757507	-166.450897	-331.634338	528.066223	-426.269928	-346.491089	454.331696	-353.449310	-385.263977	242.611633	-389.209656	-399.951050	75.938576	-311.745056	-442.384766	46.434502	-261.373230	-271.819794	48.470272	-280.950531
44	0.43000000	-315.846619	1362.617310	-73.182625	-334.395935	1345.334351	-417.067413	-394.979095	1415.917847	-228.246368	-253.646988	1318.185547	-239.166183	-334.590637	1055.524902	44.534348	-346.573975	1040.341675	-504.089996	-257.295227	830.752563	56.986624	-231.692513	836.438934	-508.488892	-226.867798	925.540771	-114.946625	-215.860382	921.555603	-344.367065	-440.696014	907.625916	-234.286316	-451.435516	1148.791504	-233.552109	-207.555573	1141.468994	-235.582123	-350.782288	513.007996	-63.688423	-356.333649	452.127289	-112.675117	-397.744720	244.414734	-71.366692	-351.306824	99.693016	-119.709801	-456.072784	49.161144	-185.412582	-289.015381	49.759296	-166.439697	-331.689301	528.064148	-426.249146	-346.548370	454.341919	-353.396759	-385.247406	242.614319	-389.216949	-399.955963	75.931923	-311.778503	-442.377625	46.417122	-261.371918	-271.827393	48.445866	-280.911133
45	0.44000000	-315.952881	1362.585327	-73.143318	-334.484314	1345.387451	-417.124420	-395.191254	1415.961060	-228.173019	-253.652115	1318.304688	-239.126556	-334.634979	1055.545410	44.575344	-346.674286	1040.340820	-504.086914	-257.323715	830.769684	57.043057	-231.692406	836.453125	-508.465836	-226.874344	925.541504	-114.944115	-215.853149	921.579956	-344.378448	-440.736786	907.638123	-234.253174	-451.580719	1148.751221	-233.537552	-207.634064	1141.571045	-235.633789	-350.825165	513.020081	-63.667431	-356.365143	452.088470	-112.675644	-397.753357	244.421814	-71.303795	-351.367340	99.719002	-119.634331	-456.080200	49.168262	-185.407745	-288.921875	49.726448	-166.483459	-331.690125	528.062317	-426.238861	-346.566254	454.370026	-353.401489	-385.230560	242.605591	-389.267365	-399.984772	75.883713	-311.761139	-442.394653	46.446075	-261.346985	-271.832184	48.464443	-280.941376
46	0.45000000	-316.110504	1362.601074	-73.097603	-334.636627	1345.385620	-417.053650	-395.353577	1415.910278	-228.042770	-253.810349	1318.334595	-239.114456	-334.708710	1055.577393	44.624554	-346.746918	1040.333862	-504.039734	-257.316788	830.799866	57.069654	-231.846146	836.434174	-508.378052	-227.024399	925.619080	-114.846695	-216.056900	921.553345	-344.291595	-440.827087	907.588562	-234.181671	-451.680145	1148.694580	-233.477692	-207.626251	1141.606689	-235.677872	-350.811981	513.068909	-63.683243	-356.336273	452.127197	-112.674995	-397.809387	244.469482	-71.282501	-351.418213	99.753868	-119.593552	-456.077850	49.165855	-185.409454	-288.900482	49.726421	-166.506210	-331.723297	528.058960	-426.194183	-346.571289	454.388550	-353.411041	-385.247620	242.608841	-389.222107	-399.951508	75.914116	-311.803040	-442.404144	46.353100	-261.360504	-271.832611	48.468853	-280.948242
47	0.46000000	-316.122467	1362.615967	-73.100822	-334.732239	1345.348022	-417.103516	-395.484222	1415.922607	-228.059662	-253.841812	1318.329956	-239.109573	-334.715027	1055.596069	44.629337	-346.863800	1040.288330	-503.878845	-257.298233	830.823273	57.117172	-231.936295	836.429443	-508.303726	-227.085129	925.635681	-114.884338	-216.049210	921.647705	-344.310364	-440.815918	907.609680	-234.198318	-451.794312	1148.675659	-233.500427	-207.657242	1141.703003	-235.607544	-350.797913	513.056580	-63.687263	-356.370453	452.061432	-112.663124	-397.779480	244.377716	-71.284660	-351.325287	99.713425	-119.703484	-456.041016	49.116348	-185.446823	-288.932495	49.760178	-166.461929	-331.755524	528.028503	-426.255280	-346.578369	454.356415	-353.453003	-385.313660	242.623657	-389.226532	-399.981110	75.897736	-311.766388	-442.402893	46.359238	-261.348511	-271.827637	48.450233	-280.929474
